<?xml version="1.0" encoding="UTF-8"?>
<svg version="1.1" xmlns="http://www.w3.org/2000/svg" width="512" height="512">
<path d="M0 0 C168.96 0 337.92 0 512 0 C512 168.96 512 337.92 512 512 C343.04 512 174.08 512 0 512 C0 343.04 0 174.08 0 0 Z " fill="#000000" transform="translate(0,0)"/>
<path d="M0 0 C83.16 0 166.32 0 252 0 C249.99891635 4.0021673 248.15191335 6.09488407 245.01400757 9.22650146 C244.50185467 9.74036321 243.98970178 10.25422495 243.4620291 10.78365827 C241.74551635 12.50346398 240.02195547 14.2160261 238.29833984 15.92871094 C237.06610385 17.16038278 235.83430811 18.3924952 234.60292053 19.62501526 C231.258436 22.97007414 227.90781626 26.30892623 224.55607557 29.6467123 C221.05445392 33.1358403 217.55848673 36.63062436 214.06192017 40.12481689 C207.43965848 46.74085981 200.81231456 53.3517875 194.18313754 59.96090055 C186.63636922 67.48532225 179.09527207 75.01541669 171.55465007 82.54599714 C156.0427432 98.03699301 140.52371482 113.52083765 125 129 C125.63027603 130.1104216 126.26055206 131.2208432 126.90992737 132.36491394 C127.26445764 132.98952609 127.6189879 133.61413824 127.98426151 134.25767803 C129.14689361 136.25197032 130.41475758 138.12527516 131.77734375 139.98828125 C132.28402588 140.6851001 132.79070801 141.38191895 133.31274414 142.09985352 C133.84891357 142.83002686 134.38508301 143.5602002 134.9375 144.3125 C136.10162317 145.91141417 137.26568391 147.51037378 138.4296875 149.109375 C139.31865723 150.32657227 139.31865723 150.32657227 140.22558594 151.56835938 C143.01559604 155.39176342 145.79024304 159.22621206 148.5625 163.0625 C149.10060303 163.80669189 149.63870605 164.55088379 150.19311523 165.31762695 C154.33154098 171.05067546 158.41362338 176.82192937 162.48071289 182.60571289 C166.11460686 187.76590195 169.79678074 192.88938149 173.5 198 C178.21040657 204.50058483 182.86297608 211.0386388 187.48046875 217.60546875 C191.11454566 222.7656672 194.79671401 227.8892894 198.5 233 C203.21040657 239.50058483 207.86297608 246.0386388 212.48046875 252.60546875 C216.64946404 258.52522322 220.88607335 264.39434178 225.13574219 270.25634766 C229.38918308 276.13190666 233.57241363 282.05446626 237.73535156 287.99438477 C241.51004252 293.36005593 245.43209584 298.59420865 249.453125 303.77734375 C251 306 251 306 251 308 C168.17 308 85.34 308 0 308 C0 206.36 0 104.72 0 0 Z " fill="#FDFDFD" transform="translate(128,102)"/>
<path d="M0 0 C1.85543608 2.42280084 3.59534302 4.85621107 5.3125 7.375 C6.40134278 8.94600673 7.49122045 10.5162966 8.58203125 12.0859375 C9.14615723 12.90030273 9.7102832 13.71466797 10.29150391 14.55371094 C12.98027257 18.40359119 15.73971864 22.201234 18.5 26 C23.21134082 32.4998989 27.86298584 39.03865268 32.48046875 45.60546875 C36.11454566 50.7656672 39.79671401 55.8892894 43.5 61 C48.21040657 67.50058483 52.86297608 74.0386388 57.48046875 80.60546875 C61.11454566 85.7656672 64.79671401 90.8892894 68.5 96 C73.20180032 102.4887078 77.84852103 109.0130051 82.45410156 115.5703125 C86.89912529 121.88739213 91.42870459 128.14211628 95.98828125 134.37695312 C96.51292969 135.09818359 97.03757812 135.81941406 97.578125 136.5625 C98.04637695 137.20316406 98.51462891 137.84382812 98.99707031 138.50390625 C100 140 100 140 100 141 C38.29 141 -23.42 141 -87 141 C-87 78.62104182 -87 78.62104182 -74.09170532 65.69580078 C-72.22303223 64.10611867 -70.35124523 62.5200906 -68.4765625 60.9375 C-66.56231204 59.12325237 -64.66245133 57.30062714 -62.77377319 55.46044922 C-58.37206512 51.21907 -53.84936541 47.14086031 -49.25556314 43.10941315 C-44.01840113 38.49849297 -38.95658688 33.71042591 -33.89605451 28.90748024 C-26.04303635 21.4635268 -18.10818946 14.11342294 -10.02978516 6.9140625 C-9.24216293 6.20722824 -8.45454071 5.50039398 -7.64305115 4.7721405 C-6.92509872 4.13786636 -6.2071463 3.50359222 -5.46743774 2.85009766 C-4.8424621 2.29601227 -4.21748646 1.74192688 -3.57357216 1.17105103 C-2 0 -2 0 0 0 Z " fill="#020100" transform="translate(237,247)"/>
<path d="M0 0 C4.49275717 4.12870318 7.70174261 8.74081157 11.0625 13.8125 C15.22403706 20.00035999 19.47213369 26.07476518 24 32 C28.95203532 38.4923415 33.57335355 45.16911939 38.14453125 51.93359375 C41.62945331 57.06532862 45.23880082 62.06776783 49 67 C53.95133225 73.49290799 58.57332126 80.1690716 63.14453125 86.93359375 C66.62945331 92.06532862 70.23880082 97.06776783 74 102 C78.95133225 108.49290799 83.57332126 115.1690716 88.14453125 121.93359375 C92.08655322 127.73843279 96.22091017 133.35721354 100.47607422 138.93481445 C104.95548926 144.84672904 109.1106298 150.95864724 113.2565918 157.10717773 C117.35588715 163.15240815 121.70325475 168.9301351 126.26953125 174.62890625 C128 177 128 177 128 179 C45.17 179 -37.66 179 -123 179 C-123 123 -123 123 -112.5625 109 C-103.16875 102 -103.16875 102 -101 102 C-101 120.15 -101 138.3 -101 157 C-8.93 156.505 -8.93 156.505 85 156 C75.92871957 143.43708341 75.92871957 143.43708341 66.84570312 130.8828125 C61.68600535 123.75513014 56.58067772 116.59206024 51.51928711 109.39428711 C47.88539314 104.23409805 44.20321926 99.11061851 40.5 94 C35.78959343 87.49941517 31.13702392 80.9613612 26.51953125 74.39453125 C22.88545328 69.2343313 19.20318728 64.11078334 15.5 59 C9.78169282 51.1055569 4.14378795 43.15724116 -1.46337891 35.18359375 C-4.22096297 31.26496778 -6.98601159 27.35160991 -9.75 23.4375 C-10.76565554 21.99871947 -11.7812835 20.55991948 -12.796875 19.12109375 C-13.52390625 18.09113281 -14.2509375 17.06117188 -15 16 C-11.76842863 12.1105609 -8.59333812 8.42593277 -4.6875 5.1875 C-1.91088743 2.93798347 -1.91088743 2.93798347 0 0 Z " fill="#FBAE50" transform="translate(251,231)"/>
</svg>
